PathFileType	4	(X/Y/Z)	OpenSim_Sub03_EMGStiffKnee_Gyro.trc
DataRate	CameraRate	NumFrames	NumMarkers	Units	OrigDataRate	OrigDataStartFrame	OrigNumFrames
100	100	37	8	m	100	950	7597
Frame#	Time	torso_imu_offset_imu	pelvis_imu_offset_imu	tibia_r_imu_offset_imu	femur_r_imu_offset_imu	tibia_l_imu_offset_imu	femur_l_imu_offset_imu	toes_r_imu_offset_imu	toes_l_imu_offset_imu
				X1	Y1	Z1	X2	Y2	Z2	X3	Y3	Z3	X4	Y4	Z4	X5	Y5	Z5	X6	Y6	Z6	X7	Y7	Z7	X8		Y8	Z8	

950	9.49000000	0.71156564	-0.38412850	0.13251715	0.19358755	0.04469723	-0.06682710	-0.27843271	-0.16413616	-0.67477765	-0.87027230	-0.01064263	-0.61973970	0.03070792	-0.03756684	-1.65616597	-0.00059568	0.11176579	-1.50412137	0.23259169	-0.27091456	-0.33056661	0.28114303	1.57737350	-0.44226750
951	9.50000000	0.75995681	-0.36728372	0.13878516	0.20073386	-0.01366388	-0.05407975	-0.28770854	-0.17006113	-0.63173182	-0.85038846	-0.01914314	-0.65187102	0.05195151	-0.04276927	-1.80489592	-0.06516573	0.12605578	-1.47231355	0.32737696	-0.28372048	-0.36898005	0.31409041	1.66972698	-0.46530697
952	9.51000000	0.79358660	-0.33875404	0.13265586	0.24160291	-0.04786285	-0.04811882	-0.27574273	-0.14647100	-0.68838208	-0.75268078	-0.00450362	-0.69743520	0.06086278	-0.04790033	-1.95662966	-0.07261166	0.12686337	-1.43868790	0.32843752	-0.27261599	-0.37005230	0.37244783	1.77783880	-0.50053920
953	9.52000000	0.81938498	-0.29762494	0.11628467	0.25240006	-0.08523859	-0.08275437	-0.29484652	-0.13490965	-0.68746205	-0.64423484	0.02309533	-0.75783701	0.06508473	-0.05519283	-2.06329326	-0.07284039	0.10945990	-1.42466297	0.27388885	-0.20910382	-0.34265604	0.39794084	1.85947121	-0.52550918
954	9.53000000	0.82051392	-0.22311699	0.08994038	0.27227526	-0.11036482	-0.09738225	-0.30733156	-0.13412983	-0.67787224	-0.52603517	0.03639720	-0.78137064	0.08462171	-0.06289606	-2.15990186	-0.12674464	0.08049481	-1.42421827	0.22359151	-0.17200442	-0.30794191	0.37622338	1.91713325	-0.54566540
955	9.54000000	0.81689439	-0.14638192	0.06432897	0.29992189	-0.11985895	-0.10039089	-0.29307620	-0.11321616	-0.70227783	-0.38139972	0.04686751	-0.79575235	0.06421378	-0.06215650	-2.24695113	-0.22526632	0.05087064	-1.40371521	0.15263220	-0.16312487	-0.27227541	0.38034220	1.94855277	-0.57732219
956	9.55000000	0.79947982	-0.07631580	0.04004990	0.28733864	-0.12522746	-0.09709231	-0.29024447	-0.11039759	-0.71273785	-0.25827060	0.07341689	-0.81658459	0.03814829	-0.08097519	-2.28910837	-0.34211619	-0.01182814	-1.41319540	0.09129322	-0.13530705	-0.22481745	0.41485160	1.93725573	-0.60579227
957	9.56000000	0.78434608	-0.02159524	0.01345791	0.26143371	-0.11595523	-0.09183343	-0.27288885	-0.10156882	-0.74206442	-0.17471058	0.08262158	-0.83012157	0.02307427	-0.12417677	-2.30288816	-0.47255192	-0.06984673	-1.41495337	0.04969328	-0.12772896	-0.19124389	0.39289815	1.86445009	-0.61185495
958	9.57000000	0.75963359	0.01448786	-0.00873944	0.24886843	-0.09888428	-0.01086790	-0.30664058	-0.09552050	-0.75856591	-0.11667290	0.08220480	-0.81795610	-0.02098505	-0.13122510	-2.33370360	-0.56940941	-0.07402627	-1.40201387	0.01779917	-0.13600373	-0.17656305	0.34331486	1.74466694	-0.61467685
959	9.58000000	0.72998031	0.03782213	-0.02179163	0.23704718	-0.07243654	0.01616030	-0.34872742	-0.07877899	-0.76689341	-0.10435074	0.10222866	-0.78003197	-0.10141857	-0.12355215	-2.35063460	-0.63620953	-0.05699134	-1.37930660	-0.00827568	-0.13373544	-0.17585532	0.34105548	1.62520031	-0.63220294
960	9.59000000	0.70668553	0.04881631	-0.01954138	0.17181447	-0.08978927	-0.00359306	-0.37275182	-0.06127253	-0.79621268	-0.13025270	0.11971236	-0.76116954	-0.12726819	-0.15268217	-2.34221489	-0.70859357	-0.05109158	-1.35338226	-0.01938199	-0.14370805	-0.19715242	0.34502875	1.55932269	-0.65921539
961	9.60000000	0.67990704	0.06266219	-0.01252852	0.13438781	-0.08953333	-0.01814432	-0.37959458	-0.06182528	-0.80884565	-0.16269749	0.10379635	-0.74348839	-0.12332569	-0.13761890	-2.31897711	-0.80517876	-0.01816318	-1.32440537	-0.00795243	-0.14734108	-0.21317081	0.34405293	1.56322174	-0.69463319
962	9.61000000	0.64254660	0.07047781	0.00411109	0.10140143	-0.09142666	-0.01090264	-0.35017110	-0.05570461	-0.82330462	-0.20102571	0.10139846	-0.72685112	-0.11653048	-0.13257628	-2.28254570	-0.85561694	-0.01157851	-1.29086978	0.01425228	-0.14867641	-0.23795757	0.37561465	1.56573650	-0.74617811
963	9.62000000	0.59752803	0.07308209	0.00973211	0.06075876	-0.10666720	0.01821093	-0.36918756	-0.06125081	-0.84619015	-0.25215036	0.12133342	-0.70467413	-0.06995293	-0.12226324	-2.23594957	-0.85776091	-0.03739133	-1.25559279	0.01315164	-0.12311625	-0.26210927	0.41064008	1.53395056	-0.79087834
964	9.63000000	0.55649134	0.07986000	0.01119239	0.01485507	-0.13580939	0.01272507	-0.37935236	-0.06342554	-0.86112173	-0.29071764	0.13568517	-0.68160749	-0.03230027	-0.11026561	-2.19415910	-0.85477235	-0.07408943	-1.23626002	0.05271657	-0.10207468	-0.34096808	0.39214657	1.50473975	-0.82595722
965	9.64000000	0.50478425	0.08297946	0.00641981	-0.02676065	-0.17317884	0.00374707	-0.29001722	-0.05935820	-0.88401402	-0.29712706	0.14635718	-0.65504522	-0.05978151	-0.09612076	-2.16349380	-0.80025080	-0.10260566	-1.20484371	0.09573616	-0.04302053	-0.42754871	0.36071241	1.46717383	-0.85379534
966	9.65000000	0.45138510	0.09137887	-0.00628633	-0.03925530	-0.20808986	0.03130739	-0.12139430	-0.08118703	-0.92192742	-0.30379401	0.16109001	-0.63061926	-0.13317132	-0.07791294	-2.13182376	-0.67760310	-0.10440289	-1.15919209	0.19988186	-0.00618127	-0.51228199	0.38352935	1.40374504	-0.88928507
967	9.66000000	0.39908152	0.10326242	-0.02338728	-0.04496441	-0.24296693	0.05755613	0.03129657	-0.09205159	-0.94342495	-0.30575550	0.16664362	-0.59152077	-0.18135542	-0.07810208	-2.08476056	-0.56248742	-0.09334965	-1.11222814	0.28515264	0.00388383	-0.56426847	0.40506103	1.34765516	-0.91813062
968	9.67000000	0.35514709	0.10354727	-0.04896995	-0.06514496	-0.27689223	0.06764673	0.10298279	-0.11501643	-0.97844096	-0.25002852	0.15642165	-0.54644909	-0.18445334	-0.06335967	-2.02950963	-0.45349214	-0.07538942	-1.04469194	0.33441976	-0.00517729	-0.59847634	0.37120981	1.30437978	-0.94076391
969	9.68000000	0.31156346	0.10955829	-0.06851490	-0.07719471	-0.29872933	0.07512517	0.09651564	-0.14221529	-1.03871200	-0.08974097	0.13396498	-0.49429818	-0.22095193	-0.05189200	-1.96221121	-0.37355547	-0.05691457	-0.98637498	0.37482765	0.00047429	-0.63165717	0.34423802	1.24659874	-0.95870757
970	9.69000000	0.27471037	0.12383572	-0.09234126	-0.09001693	-0.31891411	0.08077904	0.10243079	-0.15666962	-1.08374016	0.07757371	0.09076431	-0.48041688	-0.25259658	-0.07405374	-1.87771952	-0.29857583	-0.05429874	-0.93288827	0.42813532	-0.02195418	-0.63354420	0.32411341	1.27650598	-0.97078714
971	9.70000000	0.23575715	0.14349245	-0.12035679	-0.10014469	-0.34573608	0.09876201	0.10012340	-0.17226449	-1.13923342	0.19830327	0.04782807	-0.48909084	-0.21468790	-0.08622316	-1.76535120	-0.22478708	-0.05555739	-0.86789584	0.41467406	-0.06288825	-0.57191255	0.27698970	1.32187568	-0.94289341
972	9.71000000	0.19531210	0.17016999	-0.12632966	-0.11153528	-0.38284899	0.11561530	0.13488433	-0.17107546	-1.21300700	0.32189877	0.00060122	-0.44912254	-0.17182744	-0.09004804	-1.61699684	-0.16404177	-0.06436462	-0.79727156	0.34103645	-0.14581299	-0.49567070	0.27681708	1.23007896	-0.88899591
973	9.72000000	0.18184691	0.19764921	-0.14612667	-0.11117585	-0.42155008	0.12238529	0.15504487	-0.14750270	-1.28599565	0.45556098	-0.02087525	-0.44732679	-0.12780546	-0.10537015	-1.48800695	-0.12302960	-0.08079397	-0.72292614	0.24999206	-0.23349447	-0.41332927	0.30288036	1.08805199	-0.82140473
974	9.73000000	0.15757024	0.23197907	-0.18649797	-0.10674853	-0.44825406	0.12961099	0.11717842	-0.14352565	-1.35547795	0.57110945	-0.00925575	-0.44049100	-0.10276614	-0.13090072	-1.35484113	-0.12048027	-0.09829665	-0.64489515	0.16161126	-0.33614129	-0.32911994	0.29330307	0.95541399	-0.75289686
975	9.74000000	0.11339581	0.28087051	-0.21968072	-0.09933815	-0.47822775	0.14100150	0.05421841	-0.13614932	-1.43038362	0.63331325	0.03002267	-0.44885638	-0.14366658	-0.15044785	-1.14724510	-0.17148371	-0.12198931	-0.57035119	0.08295038	-0.45627005	-0.25609975	0.28002647	0.80360349	-0.70232109
976	9.75000000	0.08405018	0.33902725	-0.24784175	-0.09045042	-0.50693996	0.16001144	-0.04578611	-0.12187216	-1.48689488	0.62699009	0.05283439	-0.51438144	-0.18799318	-0.17026045	-0.93605657	-0.22402845	-0.12800165	-0.48724765	-0.00764059	-0.56481909	-0.20427507	0.24526036	0.67438691	-0.66426071
977	9.76000000	0.04390084	0.40958187	-0.26600298	-0.07900609	-0.53335483	0.17101398	-0.15014775	-0.12517350	-1.54485616	0.62305555	0.06368067	-0.48056212	-0.22356666	-0.16802884	-0.73398740	-0.20210775	-0.13544352	-0.40168654	-0.02850473	-0.69228102	-0.19221782	0.15253927	0.53067692	-0.63217671
978	9.77000000	0.01256899	0.47624860	-0.28055571	-0.08567077	-0.56771402	0.17812659	-0.18259743	-0.10706758	-1.61214262	0.55771583	0.12499432	-0.43748683	-0.32127656	-0.16173423	-0.49389778	-0.10594196	-0.17994886	-0.33812117	-0.12259980	-0.82564376	-0.17040571	0.02985287	0.33030249	-0.59337022
979	9.78000000	-0.01887453	0.54227528	-0.28567703	-0.10677032	-0.59901257	0.17560069	-0.22517804	-0.12511968	-1.67710260	0.44643735	0.22742886	-0.42882920	-0.39371023	-0.16921563	-0.29687317	-0.01208713	-0.19887286	-0.26777578	-0.18021209	-0.94900756	-0.15464975	-0.08087600	0.09056944	-0.56035376
980	9.79000000	-0.05201272	0.60661440	-0.30125696	-0.14054450	-0.62564950	0.16099792	-0.30792748	-0.12904900	-1.75081463	0.35476725	0.33760221	-0.38240976	-0.46368761	-0.16345564	-0.13401361	0.09286015	-0.17573744	-0.19223223	-0.20219114	-1.09815442	-0.21666902	-0.04667983	0.03024553	-0.59024053
981	9.80000000	-0.08817873	0.66126320	-0.32037896	-0.19708950	-0.63751281	0.14526735	-0.33458196	-0.13929798	-1.81086334	0.25458234	0.45014777	-0.29375173	-0.47615695	-0.16602165	0.06190091	0.22578581	-0.17130294	-0.09418393	-0.14129511	-1.29762182	-0.32627982	-0.47139615	-0.55030249	-0.40836511
982	9.81000000	-0.12918392	0.71103635	-0.33797613	-0.27905935	-0.62469566	0.13607469	-0.39107981	-0.18993251	-1.86344375	0.09382115	0.55268719	-0.21305261	-0.57013977	-0.23402819	0.27830592	0.30450100	-0.18700122	0.03641419	-0.13994529	-1.46128791	-0.42426502	-1.12033144	-1.85061964	-0.16375217
983	9.82000000	-0.17937708	0.75287832	-0.35887180	-0.38045149	-0.61396684	0.15127020	-0.43528954	-0.24076414	-1.97649640	-0.14628694	0.65605851	-0.17321042	-0.63473882	-0.29502797	0.46478291	0.32997949	-0.16462870	0.16916719	-0.13287191	-1.65571596	-0.52764688	-1.86357649	-3.03292485	0.02006633
984	9.83000000	-0.23077503	0.79207210	-0.38365477	-0.45240642	-0.56375191	0.18074363	-0.46111633	-0.27362225	-2.08214988	-0.34253416	0.74257813	-0.03612552	-0.95373570	-0.39390953	0.87999488	0.36419444	-0.12373987	0.25308423	-0.19422953	-1.85611731	-0.65062825	-0.95066955	-4.23709356	0.42416701
985	9.84000000	-0.28686971	0.77933506	-0.42035318	-0.50086763	-0.46552725	0.16057996	-0.48859700	-0.33865972	-2.17366613	-0.43187154	0.82263692	0.19930829	-1.41097965	-0.67008076	1.62405351	0.36123130	-0.16882990	0.31399273	-0.20707010	-2.12683036	-0.78398093	1.76960279	-5.16340363	0.82190657
986	9.85000000	-0.31947101	0.67976707	-0.43839830	-0.51637787	-0.36152506	0.09092439	-0.47691967	-0.39516531	-2.31288121	-0.42680399	0.92500315	0.37158135	-0.99811548	-1.00381634	2.04437322	0.30846851	-0.17987275	0.35440624	-0.35909530	-2.45779466	-0.91393716	0.30421243	-4.30816963	1.71441640
